<svg width="22" height="21" viewBox="0 0 22 21" fill="none" xmlns="http://www.w3.org/2000/svg">
<path d="M9.90009 0.100098L19.7991 1.5151L21.2131 11.4151L12.0211 20.6071C11.8336 20.7946 11.5793 20.8999 11.3141 20.8999C11.0489 20.8999 10.7946 20.7946 10.6071 20.6071L0.707093 10.7071C0.519622 10.5196 0.414307 10.2653 0.414307 10.0001C0.414307 9.73493 0.519622 9.48063 0.707093 9.2931L9.90009 0.100098ZM12.7281 8.5861C12.9138 8.77179 13.1344 8.91907 13.377 9.01954C13.6197 9.12001 13.8798 9.1717 14.1424 9.17165C14.4051 9.1716 14.6652 9.11982 14.9078 9.01927C15.1504 8.91872 15.3709 8.77135 15.5566 8.5856C15.7423 8.39984 15.8896 8.17933 15.99 7.93666C16.0905 7.69398 16.1422 7.43389 16.1421 7.17124C16.1421 6.90859 16.0903 6.64852 15.9898 6.40588C15.8892 6.16324 15.7418 5.94279 15.5561 5.7571C15.3703 5.57141 15.1498 5.42412 14.9072 5.32366C14.6645 5.22319 14.4044 5.1715 14.1417 5.17155C13.6113 5.17164 13.1026 5.38245 12.7276 5.7576C12.3526 6.13275 12.1419 6.64151 12.142 7.17195C12.1421 7.7024 12.3529 8.21108 12.7281 8.5861Z" fill="white"/>
</svg>
